<?xml version="1.0" encoding="UTF-8" standalone="no"?>
<!-- Created with Inkscape (http://www.inkscape.org/) -->

<svg
   version="1.1"
   id="svg2"
   xml:space="preserve"
   width="666.66669"
   height="666.66669"
   viewBox="0 0 666.66669 666.66669"
   sodipodi:docname="4328775.eps"
   xmlns:inkscape="http://www.inkscape.org/namespaces/inkscape"
   xmlns:sodipodi="http://sodipodi.sourceforge.net/DTD/sodipodi-0.dtd"
   xmlns="http://www.w3.org/2000/svg"
   xmlns:svg="http://www.w3.org/2000/svg"><defs
     id="defs6"><clipPath
       clipPathUnits="userSpaceOnUse"
       id="clipPath142"><path
         d="m 2292.32,3599.16 c 0.01,0.01 0.02,0.03 0.03,0.03 -0.01,-0.01 -0.01,-0.01 -0.03,-0.03 m 0.24,0.28 c 0.03,0.03 0.04,0.05 0.07,0.08 -0.02,-0.03 -0.05,-0.06 -0.07,-0.08 m 0.22,0.25 c 0.04,0.04 0.08,0.09 0.12,0.13 -0.04,-0.04 -0.09,-0.09 -0.12,-0.13 m 0.23,0.26 c 50.63,58.03 121.88,100.66 222.02,100.66 10.12,0 20.56,-0.44 31.29,-1.34 -10.74,0.91 -21.15,1.34 -31.29,1.34 -100.13,0 -171.39,-42.63 -222.02,-100.66 m 392.29,66.24 c -0.2,0.08 -0.37,0.14 -0.57,0.22 0.2,-0.08 0.37,-0.14 0.57,-0.22 m 0.02,0.01 c 0.58,0.16 13.11,3.5 33.27,6.49 -20.14,-2.99 -32.69,-6.33 -33.27,-6.49"
         id="path140" /></clipPath></defs><sodipodi:namedview
     id="namedview4"
     pagecolor="#ffffff"
     bordercolor="#666666"
     borderopacity="1.0"
     inkscape:pageshadow="2"
     inkscape:pageopacity="0.0"
     inkscape:pagecheckerboard="0" /><g
     id="g8"
     inkscape:groupmode="layer"
     inkscape:label="ink_ext_XXXXXX"
     transform="matrix(1.3333333,0,0,-1.3333333,0,666.66667)"><g
       id="g10"
       transform="scale(0.1)"><path
         d="M 4186.55,1597.4 H 813.449 c -100.761,0 -182.441,81.69 -182.441,182.44 v 2496.3 c 0,100.75 81.68,182.44 182.441,182.44 H 4186.55 c 100.76,0 182.44,-81.69 182.44,-182.44 v -2496.3 c 0,-100.75 -81.68,-182.44 -182.44,-182.44"
         style="fill:#f1f5fc;fill-opacity:1;fill-rule:nonzero;stroke:none"
         id="path12" /><path
         d="M 1843.99,3205.37 H 593.691 c -34.941,0 -63.265,28.33 -63.265,63.27 v 853.29 c 0,34.94 28.324,63.27 63.265,63.27 H 1843.99 c 34.94,0 63.26,-28.33 63.26,-63.27 v -853.29 c 0,-34.94 -28.32,-63.27 -63.26,-63.27"
         style="fill:#90a9dd;fill-opacity:1;fill-rule:nonzero;stroke:none"
         id="path14" /><path
         d="M 1687.34,3334.19 H 750.344 c -34.942,0 -63.274,28.32 -63.274,63.26 v 595.67 c 0,34.94 28.332,63.26 63.274,63.26 h 936.996 c 34.94,0 63.26,-28.32 63.26,-63.26 v -595.67 c 0,-34.94 -28.32,-63.26 -63.26,-63.26"
         style="fill:#2d3392;fill-opacity:1;fill-rule:nonzero;stroke:none"
         id="path16" /><path
         d="m 1521.52,3855.77 -285.35,-348.75 175.82,-172.83 h 275.35 c 34.94,0 63.26,28.32 63.26,63.26 v 135.9 l -229.08,322.42"
         style="fill:#f258b4;fill-opacity:1;fill-rule:nonzero;stroke:none"
         id="path18" /><path
         d="M 1104.81,3636.16 818.453,3334.19 h 593.537 l -175.82,172.83 -131.36,129.14"
         style="fill:#ffffff;fill-opacity:1;fill-rule:nonzero;stroke:none"
         id="path20" /><path
         d="m 1048.5,3810.72 c 0,-62.2 -50.426,-112.62 -112.629,-112.62 -62.199,0 -112.625,50.42 -112.625,112.62 0,62.21 50.426,112.63 112.625,112.63 62.203,0 112.629,-50.42 112.629,-112.63"
         style="fill:#90a9dd;fill-opacity:1;fill-rule:nonzero;stroke:none"
         id="path22" /><path
         d="M 1412.2,2887.21 H 684.785 c -44.816,0 -81.156,-36.33 -81.156,-81.16 v -288.18 c 0,-44.82 36.34,-81.15 81.156,-81.15 h 14.578 v -197.09 l 134.598,197.09 H 1412.2 c 44.82,0 81.16,36.33 81.16,81.15 v 288.18 c 0,44.83 -36.34,81.16 -81.16,81.16"
         style="fill:#90a9dd;fill-opacity:1;fill-rule:nonzero;stroke:none"
         id="path24" /><path
         d="m 868.297,2650.7 c 0,-21.77 -17.645,-39.42 -39.418,-39.42 -21.77,0 -39.418,17.65 -39.418,39.42 0,21.77 17.648,39.42 39.418,39.42 21.773,0 39.418,-17.65 39.418,-39.42"
         style="fill:#2d3392;fill-opacity:1;fill-rule:nonzero;stroke:none"
         id="path26" /><path
         d="m 1093.55,2650.7 c 0,-21.77 -17.66,-39.42 -39.42,-39.42 -21.78,0 -39.42,17.65 -39.42,39.42 0,21.77 17.64,39.42 39.42,39.42 21.76,0 39.42,-17.65 39.42,-39.42"
         style="fill:#2d3392;fill-opacity:1;fill-rule:nonzero;stroke:none"
         id="path28" /><path
         d="m 1318.79,2650.7 c 0,-21.77 -17.65,-39.42 -39.41,-39.42 -21.78,0 -39.42,17.65 -39.42,39.42 0,21.77 17.64,39.42 39.42,39.42 21.76,0 39.41,-17.65 39.41,-39.42"
         style="fill:#2d3392;fill-opacity:1;fill-rule:nonzero;stroke:none"
         id="path30" /><path
         d="m 3297.22,2258.4 c 0,0 236.51,-86.35 326.6,-341.64 90.1,-255.28 157.68,-634.44 180.21,-942.28 22.52,-307.839 -3.76,-484.281 -3.76,-484.281 h -506.81 c 0,0 15.02,1771.951 3.76,1768.201"
         style="fill:#f7909e;fill-opacity:1;fill-rule:nonzero;stroke:none"
         id="path32" /><path
         d="m 1532.78,2310.95 c 0,0 -397.94,-153.92 -551.862,-469.26 -153.914,-315.36 -232.754,-724.55 -82.586,-1220.1 52.559,-146.41 52.559,-146.41 52.559,-146.41 0,0 529.329,18.769 548.099,0 9.5,-9.489 70.91,142.5 131.2,294.5 58.86,148.379 116.66,296.75 124.08,294.9 15.02,-3.75 -7.51,814.65 -7.51,814.65 l -120.13,326.61 -93.85,105.11"
         style="fill:#f7909e;fill-opacity:1;fill-rule:nonzero;stroke:none"
         id="path34" /><path
         d="m 898.039,622.559 c -0.035,0.121 -0.066,0.222 -0.101,0.339 0.027,-0.097 0.074,-0.246 0.101,-0.339 m -0.359,1.191 c -0.047,0.152 -0.09,0.289 -0.137,0.441 0.047,-0.152 0.09,-0.289 0.137,-0.441 m -0.289,0.949 c -0.051,0.172 -0.102,0.34 -0.153,0.512 0.055,-0.18 0.098,-0.332 0.153,-0.512 m -0.375,1.262 c -0.059,0.187 -0.114,0.371 -0.172,0.559 0.054,-0.188 0.117,-0.379 0.172,-0.559 m -0.274,0.898 c -0.109,0.36 -0.222,0.743 -0.328,1.09 0.109,-0.359 0.219,-0.719 0.328,-1.09 m -0.387,1.289 c -0.062,0.204 -0.125,0.422 -0.187,0.622 0.062,-0.211 0.121,-0.411 0.187,-0.622 m -0.261,0.883 c -0.114,0.367 -0.219,0.731 -0.332,1.098 0.109,-0.359 0.222,-0.738 0.332,-1.098 m -0.403,1.34 c -0.062,0.211 -0.125,0.418 -0.187,0.629 0.062,-0.211 0.125,-0.418 0.187,-0.629 m -0.222,0.75 c -0.121,0.41 -0.239,0.801 -0.36,1.199 0.118,-0.39 0.243,-0.808 0.36,-1.199 m -0.438,1.469 c -0.121,0.402 -0.242,0.808 -0.359,1.219 0.125,-0.418 0.234,-0.797 0.359,-1.219 m -0.394,1.332 c -0.059,0.187 -0.11,0.367 -0.168,0.558 0.054,-0.179 0.113,-0.378 0.168,-0.558 m -0.293,0.988 c -0.074,0.25 -0.141,0.481 -0.215,0.719 0.07,-0.238 0.144,-0.477 0.215,-0.719 m -0.383,1.301 c -0.043,0.141 -0.086,0.289 -0.129,0.43 0.043,-0.153 0.086,-0.282 0.129,-0.43 m -0.387,1.301 c -0.019,0.07 -0.043,0.148 -0.062,0.218 0.019,-0.058 0.047,-0.16 0.062,-0.218 m -0.308,1.047 c -0.024,0.089 -0.047,0.171 -0.071,0.25 0.028,-0.09 0.047,-0.161 0.071,-0.25"
         style="fill:#ebc3c8;fill-opacity:1;fill-rule:nonzero;stroke:none"
         id="path36" /><path
         d="m 1499.98,474.762 c -0.38,0 -0.71,0.136 -0.99,0.418 -6.26,6.261 -69.23,8.34 -150.44,8.34 -162.4,0 -397.659,-8.34 -397.659,-8.34 0,0 0,0 -52.559,146.41 v 0 c -0.098,0.32 -0.195,0.64 -0.293,0.969 -0.027,0.093 -0.074,0.242 -0.101,0.339 -0.086,0.274 -0.176,0.582 -0.258,0.852 -0.047,0.152 -0.09,0.289 -0.137,0.441 -0.051,0.168 -0.102,0.34 -0.152,0.508 -0.055,0.18 -0.098,0.332 -0.153,0.512 -0.074,0.25 -0.148,0.5 -0.222,0.75 -0.055,0.18 -0.118,0.371 -0.172,0.559 -0.035,0.121 -0.067,0.222 -0.102,0.339 -0.109,0.371 -0.219,0.731 -0.328,1.09 -0.019,0.071 -0.039,0.133 -0.059,0.199 -0.066,0.211 -0.125,0.411 -0.187,0.622 -0.023,0.089 -0.051,0.179 -0.074,0.261 -0.11,0.36 -0.223,0.739 -0.332,1.098 -0.024,0.082 -0.043,0.152 -0.071,0.242 -0.062,0.211 -0.125,0.418 -0.187,0.629 -0.012,0.039 -0.024,0.09 -0.035,0.121 -0.117,0.391 -0.242,0.809 -0.36,1.199 -0.023,0.078 -0.054,0.192 -0.078,0.27 -0.125,0.422 -0.234,0.801 -0.359,1.219 -0.012,0.031 -0.024,0.07 -0.035,0.113 -0.055,0.18 -0.114,0.379 -0.168,0.558 -0.039,0.149 -0.082,0.29 -0.125,0.43 -0.071,0.242 -0.145,0.481 -0.215,0.719 -0.055,0.191 -0.113,0.391 -0.168,0.582 -0.043,0.148 -0.086,0.277 -0.129,0.43 -0.082,0.289 -0.172,0.589 -0.258,0.871 -0.015,0.058 -0.043,0.16 -0.062,0.218 -0.082,0.282 -0.16,0.551 -0.246,0.829 -0.024,0.089 -0.043,0.16 -0.071,0.25 -55.386,188.711 -77.449,364.731 -75.011,527.751 20.464,-6.82 42.285,-9.72 64.574,-9.72 39.504,0 80.469,9.12 117.862,21.76 163.08,55.1 303.6,164.3 419.4,291.66 101.72,111.88 186.1,238.01 267.97,365.32 28.61,-203.13 43.27,-464.89 13.73,-695.91 -8.4,-65.65 -22.07,-130.97 -38.53,-193.4 l -79.1,-2.872 c -27.5,-1 -49.73,-22.738 -51.34,-50.207 l -5.61,-95.16 90.8,0.379 C 1558.13,625.871 1491.48,501.461 1491.48,501.461 h 26.44 c -8.56,-16.969 -14.81,-26.699 -17.94,-26.699"
         style="fill:#e76879;fill-opacity:1;fill-rule:nonzero;stroke:none"
         id="path38" /><path
         d="m 1476.47,2299.68 c 0,0 394.18,165.19 732.05,165.19 337.87,0 728.3,0 1129.99,-198.97 0,0 123.89,-405.44 123.89,-803.38 0,-397.94 -116.38,-961.059 -116.38,-961.059 H 1491.48 c 0,0 168.94,315.34 210.24,638.209 41.29,322.85 -3.76,705.77 -52.56,904.74 -48.81,198.97 -172.69,255.27 -172.69,255.27"
         style="fill:#f258b4;fill-opacity:1;fill-rule:nonzero;stroke:none"
         id="path40" /><path
         d="m 4265.79,1518.83 c -86.35,334.12 -349.14,773.35 -349.14,773.35 26.36,3.51 46.89,8.75 62.12,19.8 l -35.84,-8.54 c 0,0 -52.56,-3.76 -78.84,18.77 -26.28,22.52 22.53,45.05 22.53,45.05 0,0 -33.79,-11.26 -45.05,11.26 -11.26,22.53 30.03,33.79 30.03,33.79 l -33.79,15.02 c -37.54,26.28 11.27,52.56 11.27,52.56 -41.3,22.52 -3.76,45.05 -3.76,45.05 -7.51,82.59 -71.33,60.06 -71.33,60.06 0,0 26.28,-52.56 0,-131.39 -37.54,-18.77 -90.1,-97.61 -97.61,-210.23 -7.51,-112.63 33.79,-1749.431 33.79,-1749.431 281.56,-18.769 386.68,7.512 521.83,180.199 124.37,158.934 120.12,510.562 33.79,844.682"
         style="fill:#f68792;fill-opacity:1;fill-rule:nonzero;stroke:none"
         id="path42" /><path
         d="m 3964.77,2194.34 c -42.67,0 -85.37,15.41 -117.63,43.43 -39.45,34.27 -62.52,86.62 -61.2,138.87 0.79,30.86 9.59,61.01 21.02,89.7 8.98,22.55 20.23,45.04 38.04,61.37 0.1,-0.94 0.23,-1.81 0.32,-2.77 0,0 -15.64,-9.39 -15.63,-22.1 0.01,-6.98 4.75,-14.97 19.39,-22.95 0,0 -25.49,-13.72 -25.46,-31.25 0.01,-6.73 3.78,-14.02 14.19,-21.31 l 33.79,-15.02 c 0,0 -31.97,-8.72 -31.98,-26.16 0,-2.38 0.6,-4.92 1.95,-7.63 5.63,-11.26 16.89,-14.07 26.74,-14.07 9.86,0 18.31,2.81 18.31,2.81 0,0 -30.32,-13.99 -30.3,-30.94 0,-4.56 2.2,-9.33 7.77,-14.11 19.7,-16.89 54.17,-19 70.2,-19 5.34,0 8.64,0.23 8.64,0.23 l 35.84,8.54 c -15.23,-11.05 -35.76,-16.29 -62.12,-19.8 v 0 0 0 0 0 c 0,0 0,0 0,-0.01 0,0 0.01,0 0.01,-0.01 v 0 c 0.7,-1.17 22.67,-37.98 55.65,-97.66 -2.51,-0.11 -5.02,-0.16 -7.54,-0.16"
         style="fill:#e7636f;fill-opacity:1;fill-rule:nonzero;stroke:none"
         id="path44" /><path
         d="m 4232,674.148 v 0 c 0.11,0.141 0.22,0.293 0.34,0.434 -0.12,-0.141 -0.23,-0.293 -0.34,-0.434 v 0 m 0.44,0.563 c 0.08,0.109 0.15,0.199 0.23,0.301 -0.07,-0.09 -0.16,-0.203 -0.23,-0.301 m 0.36,0.469 c 0.07,0.09 0.14,0.179 0.22,0.281 -0.08,-0.102 -0.15,-0.191 -0.22,-0.281 m 0.34,0.429 c 0.07,0.102 0.15,0.2 0.22,0.301 -0.07,-0.101 -0.15,-0.199 -0.22,-0.301 m 0.34,0.45 c 0.11,0.152 0.21,0.281 0.33,0.421 -0.11,-0.14 -0.22,-0.281 -0.33,-0.421 m 0.38,0.492 c 0.09,0.121 0.18,0.238 0.27,0.359 -0.09,-0.121 -0.18,-0.238 -0.27,-0.359 m 0.41,0.551 c 0.06,0.07 0.14,0.168 0.2,0.25 -0.07,-0.082 -0.13,-0.172 -0.2,-0.25 m 0.35,0.457 c 0.06,0.07 0.11,0.14 0.16,0.203 -0.05,-0.071 -0.1,-0.133 -0.16,-0.203 m 0.35,0.453 c 0.04,0.058 0.07,0.097 0.12,0.16 -0.04,-0.051 -0.08,-0.113 -0.12,-0.16 m 0.33,0.437 v 0.012 -0.012 m 0.88,1.172 0.02,0.027 c -0.01,-0.007 -0.02,-0.019 -0.02,-0.027"
         style="fill:#ebc3c8;fill-opacity:1;fill-rule:nonzero;stroke:none"
         id="path46" /><path
         d="m 3709.39,524.969 v 0 c -0.81,32.363 -2.2,88.551 -3.97,161.422 1.77,-72.852 3.17,-129.051 3.97,-161.422"
         style="fill:#e76879;fill-opacity:1;fill-rule:nonzero;stroke:none"
         id="path48" /><path
         d="m 4027.96,512.949 -318.57,12.02 c -0.8,32.371 -2.2,88.57 -3.97,161.422 -2.12,86.699 -4.77,196.988 -7.62,318.739 l 84.06,293.49 c 22.12,-68.54 63.73,-131.57 116.72,-180.82 85.37,-79.35 197.47,-125.581 311.9,-147.698 37.3,-7.204 75.26,-11.864 113.22,-12.911 -10.3,-114.332 -38.41,-211.519 -87.5,-277.543 l -0.02,-0.027 c -0.3,-0.391 -0.58,-0.769 -0.88,-1.16 v -0.012 c -0.07,-0.09 -0.14,-0.179 -0.21,-0.277 -0.05,-0.063 -0.08,-0.102 -0.12,-0.16 -0.07,-0.082 -0.13,-0.16 -0.19,-0.25 -0.05,-0.063 -0.1,-0.133 -0.16,-0.203 -0.05,-0.071 -0.1,-0.137 -0.15,-0.207 -0.06,-0.082 -0.14,-0.18 -0.2,-0.25 -0.04,-0.071 -0.09,-0.133 -0.14,-0.192 -0.09,-0.121 -0.18,-0.238 -0.27,-0.359 -0.02,-0.02 -0.04,-0.051 -0.05,-0.071 -0.12,-0.14 -0.22,-0.269 -0.33,-0.421 -0.04,-0.047 -0.08,-0.098 -0.12,-0.149 -0.07,-0.101 -0.15,-0.199 -0.22,-0.301 -0.04,-0.05 -0.08,-0.097 -0.12,-0.148 -0.08,-0.102 -0.15,-0.191 -0.22,-0.281 -0.05,-0.059 -0.08,-0.11 -0.13,-0.168 -0.08,-0.102 -0.15,-0.192 -0.23,-0.301 -0.04,-0.039 -0.07,-0.082 -0.1,-0.129 -0.12,-0.141 -0.23,-0.293 -0.34,-0.434 v 0 C 4165,588.539 4105.35,538.941 4027.96,512.949"
         style="fill:#e7636f;fill-opacity:1;fill-rule:nonzero;stroke:none"
         id="path50" /><path
         d="m 2685.3,3666.19 c 0,0 221.49,60.07 322.85,-97.6 101.19,-157.41 26.53,-296.1 26.28,-296.58 4.09,7.58 74.51,-63.12 78.02,-68.1 40.07,-56.81 46.11,-134.82 31.61,-201.24 -15.77,-72.29 -69.18,-160.57 -72.09,-158.63 63.82,-48.81 183.95,-176.45 78.84,-304.09 -1381.52,60.07 -1505.41,78.84 -1505.41,78.84 0,0 -41.29,262.79 270.3,345.38 7.51,176.44 131.39,289.07 255.28,319.1 0,0 41.3,559.36 514.32,382.92"
         style="fill:#2d3392;fill-opacity:1;fill-rule:nonzero;stroke:none"
         id="path52" /><path
         d="m 2775.4,2941.64 7.51,-503.05 c 0,0 67.56,-78.84 45.05,-213.98 -31.02,-186.08 -270.31,-217.75 -461.77,-131.4 -191.46,86.35 -255.28,349.13 -255.28,349.13 l 412.95,638.21 251.54,-138.91"
         style="fill:#f7909e;fill-opacity:1;fill-rule:nonzero;stroke:none"
         id="path54" /><path
         d="m 2736.03,2619.68 c -35.68,0 -71.3,8.54 -104.63,21.66 -65.47,25.77 -124.83,70.76 -159.44,132.02 -27.3,48.32 -38.01,103.98 -43.74,159.36 l 66.2,102.32 c 4.39,0.19 6.92,0.46 6.92,0.46 0,0 37.22,-170.65 221.7,-170.65 16.59,0 34.39,1.39 53.44,4.39 l 3.64,-244.7 c -6.9,-1.55 -13.86,-2.85 -20.88,-3.62 -7.72,-0.84 -15.47,-1.24 -23.21,-1.24"
         style="fill:#e76879;fill-opacity:1;fill-rule:nonzero;stroke:none"
         id="path56" /><path
         d="m 2966.85,3362.11 c 0,0 52.56,-450.5 -183.94,-491.8 -236.52,-41.29 -281.57,165.19 -281.57,165.19 0,0 -142.65,-15.02 -142.65,101.36 0,116.38 131.39,97.61 131.39,97.61 l 15.02,281.56 446.74,-26.28 15.01,-127.64"
         style="fill:#f7909e;fill-opacity:1;fill-rule:nonzero;stroke:none"
         id="path58" /><path
         d="m 2490.08,3234.47 c 0,0 191.46,30.03 172.69,229 33.79,-52.56 37.54,-198.97 37.54,-198.97 l 289.07,-7.51 c 0,0 18.77,131.4 -33.79,277.81 -390.43,22.52 -480.52,18.77 -480.52,18.77 l -18.77,-266.55 33.78,-52.55"
         style="fill:#2d3392;fill-opacity:1;fill-rule:nonzero;stroke:none"
         id="path60" /><path
         d="m 2875.82,3077.49 c -8.45,0.26 -17.41,0.53 -26.9,0.53 -16.17,0 -27.74,4.9 -36.41,15.42 -22.76,27.58 -19.54,86.24 -15.34,114.54 l 168.17,-3.56 c -8.37,-129.34 -27.62,-128.85 -89.52,-126.93 z m -240.65,7.51 c -9.01,0.26 -18.58,0.53 -28.72,0.53 -18.58,0 -32.26,5.71 -41.82,17.46 -22.25,27.31 -19.55,82.07 -15.36,110.22 l 183.1,-3.87 c -9.13,-126.77 -31.97,-126.2 -97.2,-124.34 z m 388.41,158.2 -533.07,11.26 -0.85,-39.99 19.41,-0.41 c -4,-30.89 -7.76,-96.57 24.47,-136.26 17.15,-21.11 42.36,-32.27 72.91,-32.27 9.73,0 18.92,-0.27 27.57,-0.52 5.27,-0.15 10.35,-0.24 15.28,-0.24 56.65,0.01 91.09,11.79 109.39,74.67 3.99,-18.74 10.97,-36.9 22.91,-51.4 16.17,-19.64 39.45,-30.02 67.32,-30.02 9.05,0 17.61,-0.26 25.67,-0.51 5.01,-0.16 9.86,-0.25 14.55,-0.25 73.03,0 106.92,22.03 116.22,166.32 l 17.38,-0.38 0.84,40"
         style="fill:#211d1d;fill-opacity:1;fill-rule:nonzero;stroke:none"
         id="path62" /><path
         d="m 898.332,621.59 c 0,0 -26.281,116.379 176.438,315.351 202.73,198.969 484.29,450.499 615.68,514.319 131.4,63.82 229,15.01 262.79,-63.82 33.79,-78.84 48.8,-123.89 15.02,-97.61 3.75,-48.81 -33.79,-52.56 -56.32,-22.53 22.53,-78.84 -22.52,-56.31 -45.04,-33.79 3.75,-78.84 -60.07,-7.51 -63.82,7.51 -48.81,-63.82 -105.12,-30.03 -105.12,-30.03 -30.03,-277.81 -90.1,-713.291 -90.1,-713.291 L 950.891,475.18 898.332,621.59"
         style="fill:#f7909e;fill-opacity:1;fill-rule:nonzero;stroke:none"
         id="path64" /><path
         d="m 1818.8,1318.54 c 14.23,-28.27 27.73,-56.9 40.49,-85.87 2.18,-4.94 9.4,-6.09 13.69,-3.58 5.09,2.98 5.77,8.72 3.58,13.68 -12.76,28.97 -26.27,57.6 -40.49,85.87 -2.43,4.82 -9.23,6.19 -13.68,3.58 -4.91,-2.87 -6.03,-8.83 -3.59,-13.68"
         style="fill:#211d1d;fill-opacity:1;fill-rule:nonzero;stroke:none"
         id="path66" /><path
         d="m 1871.57,1341.18 c 13.94,-29.33 27.87,-58.65 41.81,-87.99 2.32,-4.87 9.3,-6.14 13.68,-3.58 4.99,2.92 5.92,8.79 3.59,13.68 -13.93,29.32 -27.87,58.65 -41.81,87.98 -2.32,4.88 -9.3,6.15 -13.68,3.59 -4.99,-2.92 -5.91,-8.79 -3.59,-13.68"
         style="fill:#211d1d;fill-opacity:1;fill-rule:nonzero;stroke:none"
         id="path68" /><path
         d="m 1917.12,1373.43 c 12.57,-31.88 25.14,-63.77 37.72,-95.66 1.98,-5.02 6.69,-8.53 12.3,-6.98 4.78,1.32 8.97,7.24 6.98,12.3 -12.57,31.89 -25.14,63.77 -37.72,95.66 -1.98,5.02 -6.7,8.52 -12.3,6.99 -4.78,-1.32 -8.98,-7.26 -6.98,-12.31"
         style="fill:#211d1d;fill-opacity:1;fill-rule:nonzero;stroke:none"
         id="path70" /><path
         d="m 1881.91,1470.03 c 0,0 101.36,22.52 116.38,3.75 15.02,-18.77 -82.59,-60.06 -82.59,-60.06 l -63.82,33.78 30.03,22.53"
         style="fill:#f7909e;fill-opacity:1;fill-rule:nonzero;stroke:none"
         id="path72" /><path
         d="m 1480.22,1226 213.99,-127.63 3.75,112.62 -172.69,90.1 -45.05,-75.09"
         style="fill:#90a9dd;fill-opacity:1;fill-rule:nonzero;stroke:none"
         id="path74" /><path
         d="m 1552.79,1238.5 c -24.94,-54.17 -82.02,-81.11 -127.49,-60.17 -45.46,20.92 -62.1,81.81 -37.15,135.98 24.94,54.17 82.02,81.12 127.48,60.19 45.47,-20.94 62.11,-81.83 37.16,-136"
         style="fill:#2d3392;fill-opacity:1;fill-rule:nonzero;stroke:none"
         id="path76" /><path
         d="m 1528.44,1252.93 c -24.27,-52.74 -79.84,-78.96 -124.09,-58.59 -44.26,20.38 -60.46,79.65 -36.17,132.39 24.28,52.73 79.84,78.96 124.09,58.58 44.26,-20.38 60.46,-79.65 36.17,-132.38"
         style="fill:#ffffff;fill-opacity:1;fill-rule:nonzero;stroke:none"
         id="path78" /><path
         d="m 1527.14,798.031 5.61,95.16 c 1.61,27.469 23.84,49.207 51.34,50.207 l 416.08,15.122 341.74,986.41 c 17.91,51.68 66.6,86.34 121.29,86.34 h 1370.98 c 37.51,0 64.54,-35.98 54.11,-72.01 L 3554.38,806.48 1527.14,798.031"
         style="fill:#c6d7f1;fill-opacity:1;fill-rule:nonzero;stroke:none"
         id="path80" /><path
         d="m 3875.36,2014.37 56.31,-129.51 -107,-28.16 -39.41,140.78 90.1,16.89"
         style="fill:#c6d7f1;fill-opacity:1;fill-rule:nonzero;stroke:none"
         id="path82" /><path
         d="m 2073.37,793.672 380.92,1059.278 c 18.06,50.19 65.93,83.44 119.27,82.83 l 1291.37,-14.79 c 47.76,-0.54 81.91,-46.39 68.76,-92.31 L 3638.84,799.301 c 0,0 -1587.99,-5.629 -1565.47,-5.629"
         style="fill:#90a9dd;fill-opacity:1;fill-rule:nonzero;stroke:none"
         id="path84" /><path
         d="m 3398.89,798.449 v 0 c 96.03,0.34 170.56,0.61 209.66,0.75 -39.09,-0.14 -113.66,-0.41 -209.66,-0.75"
         style="fill:#c1747a;fill-opacity:1;fill-rule:nonzero;stroke:none"
         id="path86" /><path
         d="m 2073.37,793.672 v 0 c 16.76,0.117 890.96,3.238 1325.52,4.777 v 0 c -435.16,-1.551 -1311.27,-4.668 -1325.52,-4.777"
         style="fill:#c5439a;fill-opacity:1;fill-rule:nonzero;stroke:none"
         id="path88" /><path
         d="m 3608.56,799.199 c 0.63,0 1.23,0 1.83,0 -0.6,0 -1.21,0 -1.83,0 m 2.06,0 c 0.03,0 0.06,0 0.09,0 -0.03,0 -0.06,0 -0.09,0 m 0.41,0.012 c 0.05,0 0.11,0 0.16,0 -0.06,0 -0.1,0 -0.16,0 m 0.41,0 c 1.43,0 2.81,0.008 4.13,0.008 -1.33,0 -2.69,-0.008 -4.13,-0.008 m 4.24,0.008 c 0.07,0 0.11,0 0.17,0 -0.05,0 -0.12,0 -0.17,0 m 0.33,0 c 0.37,0 0.75,0.011 1.11,0.011 -0.37,0 -0.73,-0.011 -1.11,-0.011 m 1.11,0.011 c 0.54,0 1.07,0 1.59,0 -0.53,0 -1.04,0 -1.59,0 m 1.72,0 c 0.47,0 0.92,0.012 1.37,0.012 -0.45,0 -0.89,-0.012 -1.37,-0.012 m 1.43,0.012 c 0.05,0 0.12,0 0.17,0 -0.05,0 -0.12,0 -0.17,0 m 0.57,0 c 0.04,0 0.08,0 0.13,0 -0.05,0 -0.09,0 -0.13,0 m 0.25,0 c 0.34,0 0.67,0 1,0 -0.34,0 -0.66,0 -1,0 m 1.04,0 c 1.04,0.008 2.01,0.008 2.95,0.02 -0.94,-0.012 -1.92,-0.012 -2.95,-0.02 m 3.05,0.02 c 0.29,0 0.58,0 0.86,0 -0.29,0 -0.56,0 -0.86,0 m 0.89,0 c 0.25,0 0.51,0 0.75,0 -0.24,0 -0.5,0 -0.75,0 m 1.02,0 c 0.16,0 0.32,0 0.48,0 -0.16,0 -0.32,0 -0.48,0 m 0.54,0 c 0.06,0 0.12,0 0.17,0 -0.05,0 -0.11,0 -0.17,0 m 0.24,0 c 0.27,0.008 0.52,0.008 0.79,0.008 -0.26,0 -0.53,0 -0.79,-0.008 m 0.87,0.008 c 0.41,0 0.8,0 1.18,0 -0.38,0 -0.77,0 -1.18,0 m 1.32,0 c 0.45,0 0.87,0.011 1.28,0.011 -0.41,0 -0.84,-0.011 -1.28,-0.011 m 1.35,0.011 c 0.04,0 0.07,0 0.1,0 -0.03,0 -0.06,0 -0.1,0 m 0.18,0 c 0.03,0 0.07,0 0.1,0 -0.04,0 -0.06,0 -0.1,0 m 0.31,0 c 0.14,0 0.29,0 0.43,0 -0.14,0 -0.29,0 -0.43,0 m 0.68,0 c 0.04,0 0.08,0 0.12,0 -0.04,0 -0.08,0 -0.12,0 m 0.22,0 c 0.07,0 0.13,0 0.19,0 -0.06,0 -0.12,0 -0.19,0 m 0.43,0 c 0.01,0 0.03,0 0.04,0 -0.02,0 -0.02,0 -0.04,0 m 0.21,0 c 0.05,0 0.1,0 0.15,0.008 -0.05,-0.008 -0.1,-0.008 -0.15,-0.008 m 0.37,0.008 c 0.36,0 0.7,0 1.02,0 -0.33,0 -0.66,0 -1.02,0 m 1.06,0 c 0.05,0 0.09,0 0.13,0 -0.04,0 -0.08,0 -0.13,0 m 0.41,0 c 0.01,0 0.03,0 0.04,0 -0.01,0 -0.03,0 -0.04,0 m 0.08,0 c 0.07,0 0.16,0 0.24,0 -0.08,0 -0.16,0 -0.24,0 m 0.26,0 c 0.14,0 0.27,0 0.4,0 -0.13,0 -0.26,0 -0.4,0 m 0.45,0 c 0.35,0.012 0.68,0.012 0.96,0.012 -0.29,0 -0.6,0 -0.96,-0.012 m 0.99,0.012 c 0.12,0 0.22,0 0.32,0 -0.1,0 -0.21,0 -0.32,0 m 0.34,0 c 0.52,0 0.91,0 1.15,0 -0.24,0 -0.63,0 -1.15,0 m 1.16,0 c 0.06,0 0.12,0 0.16,0 -0.04,0 -0.1,0 -0.16,0 m 0.28,0 v 0 l 58.96,205.819 v 0 l -58.96,-205.819 v 0"
         style="fill:#c1747a;fill-opacity:1;fill-rule:nonzero;stroke:none"
         id="path90" /><path
         d="m 3697.8,1005.12 v 0 0.01 -0.01 m 84.06,293.5 v 0 l 132.41,462.27 c 0,0.01 0,0.01 0,0.01 l -132.41,-462.28"
         style="fill:#c26e71;fill-opacity:1;fill-rule:nonzero;stroke:none"
         id="path92" /><path
         d="m 3697.8,1005.13 v 0 l 84.06,293.49 v 0 l -84.06,-293.49"
         style="fill:#b15158;fill-opacity:1;fill-rule:nonzero;stroke:none"
         id="path94" /><path
         d="m 2073.37,793.672 57.89,160.957 c 95.3,11.402 189.56,35.492 281.98,62.361 539.05,156.69 1049.87,409.88 1501.03,743.91 l -132.41,-462.28 -84.06,-293.49 v -0.01 l -58.96,-205.819 v 0 c 0,0 -0.04,0 -0.12,0 -0.04,0 -0.1,0 -0.16,0 -0.01,0 -0.01,0 -0.01,0 -0.24,0 -0.63,0 -1.15,0 -0.01,0 -0.01,0 -0.02,0 -0.1,0 -0.2,0 -0.32,0 -0.01,0 -0.02,0 -0.03,0 -0.28,0 -0.61,0 -0.96,-0.012 -0.01,0 -0.03,0 -0.05,0 -0.13,0 -0.26,0 -0.4,0 h -0.02 c -0.08,0 -0.17,0 -0.24,0 -0.02,0 -0.03,0 -0.04,0 -0.01,0 -0.03,0 -0.04,0 -0.09,0 -0.19,0 -0.28,0 -0.04,0 -0.08,0 -0.13,0 -0.01,0 -0.03,0 -0.04,0 -0.32,0 -0.66,0 -1.02,0 -0.07,0 -0.14,0 -0.22,0 -0.05,-0.008 -0.1,-0.008 -0.15,-0.008 -0.05,0 -0.12,0 -0.17,0 -0.01,0 -0.03,0 -0.04,0 -0.08,0 -0.16,0 -0.24,0 -0.06,0 -0.12,0 -0.19,0 -0.02,0 -0.07,0 -0.1,0 -0.04,0 -0.08,0 -0.12,0 -0.09,0 -0.17,0 -0.25,0 -0.14,0 -0.29,0 -0.43,0 -0.07,0 -0.14,0 -0.21,0 -0.03,0 -0.07,0 -0.1,0 -0.02,0 -0.05,0 -0.08,0 -0.03,0 -0.06,0 -0.1,0 -0.02,0 -0.05,0 -0.07,0 -0.41,0 -0.83,-0.011 -1.28,-0.011 -0.04,0 -0.09,0 -0.14,0 -0.38,0 -0.77,0 -1.18,0 -0.02,0 -0.06,0 -0.08,0 -0.27,0 -0.52,0 -0.79,-0.008 -0.03,0 -0.04,0 -0.07,0 -0.05,0 -0.11,0 -0.17,0 -0.02,0 -0.04,0 -0.06,0 -0.16,0 -0.32,0 -0.48,0 -0.09,0 -0.18,0 -0.27,0 -0.24,0 -0.5,0 -0.75,0 -0.01,0 -0.02,0 -0.03,0 -0.28,0 -0.57,0 -0.86,0 -0.03,0 -0.07,0 -0.1,0 -0.94,-0.012 -1.91,-0.012 -2.95,-0.02 -0.01,0 -0.03,0 -0.04,0 -0.33,0 -0.66,0 -1,0 -0.04,0 -0.09,0 -0.12,0 -0.05,0 -0.09,0 -0.13,0 -0.14,0 -0.26,0 -0.4,0 -0.05,0 -0.12,0 -0.17,0 -0.02,0 -0.04,0 -0.06,0 -0.45,0 -0.9,-0.012 -1.37,-0.012 -0.03,0 -0.1,0 -0.13,0 -0.52,0 -1.05,0 -1.59,0 v 0 c -0.36,0 -0.74,-0.011 -1.11,-0.011 -0.05,0 -0.1,0 -0.16,0 -0.06,0 -0.1,0 -0.17,0 -0.04,0 -0.07,0 -0.11,0 -1.32,0 -2.7,-0.008 -4.13,-0.008 -0.07,0 -0.18,0 -0.25,0 -0.05,0 -0.11,0 -0.16,0 -0.1,-0.012 -0.22,-0.012 -0.32,-0.012 -0.03,0 -0.06,0 -0.09,0 -0.08,0 -0.14,0 -0.23,0 -0.6,0 -1.2,0 -1.83,0 h -0.01 c -39.1,-0.14 -113.63,-0.41 -209.66,-0.75 -434.56,-1.539 -1308.76,-4.66 -1325.51,-4.777"
         style="fill:#6786cc;fill-opacity:1;fill-rule:nonzero;stroke:none"
         id="path96" /><path
         d="m 4063.06,2566.23 c 0,0 -127.64,18.77 -150.16,-67.57 -22.53,-86.35 0,-161.43 30.03,-195.22 30.04,-33.78 120.13,-26.28 120.13,-26.28 l 3.75,41.29 c 0,0 -71.33,-26.27 -82.59,41.3 -11.25,67.58 -18.76,120.14 -7.5,138.91 11.25,18.77 82.58,22.52 82.58,22.52 l 3.76,45.05"
         style="fill:#2d3392;fill-opacity:1;fill-rule:nonzero;stroke:none"
         id="path98" /><path
         d="m 3849.08,2479.89 c 0,0 -48.81,-26.28 -11.27,-52.56 l 33.79,-15.02 c 0,0 -41.29,-11.26 -30.03,-33.79 11.26,-22.52 45.05,-11.26 45.05,-11.26 0,0 -48.81,-22.53 -22.53,-45.05 26.28,-22.53 78.84,-18.77 78.84,-18.77 l 35.84,8.54 c 17.3,12.54 27.74,32.6 31.73,66.54 7.51,63.82 -18.77,150.17 -18.77,150.17 l -146.41,-3.75 c 0,0 -37.54,-22.53 3.76,-45.05"
         style="fill:#f7909e;fill-opacity:1;fill-rule:nonzero;stroke:none"
         id="path100" /><path
         d="m 3841.54,2470.62 c 33.16,1.14 66.34,2.28 99.5,3.42 12.83,0.44 12.89,20.44 0,20 -33.16,-1.14 -66.34,-2.28 -99.5,-3.42 -12.83,-0.44 -12.89,-20.44 0,-20"
         style="fill:#211d1d;fill-opacity:1;fill-rule:nonzero;stroke:none"
         id="path102" /><path
         d="m 3870.3,2411.64 c 30.29,4.2 60.84,6.55 91.41,7.32 12.84,0.32 12.9,20.32 0,20 -32.39,-0.82 -64.64,-3.59 -96.72,-8.04 -5.36,-0.74 -8.28,-7.58 -7,-12.3 1.6,-5.76 6.94,-7.72 12.31,-6.98"
         style="fill:#211d1d;fill-opacity:1;fill-rule:nonzero;stroke:none"
         id="path104" /><path
         d="m 3879.05,2357.75 c 27.96,3.36 55.83,7.4 83.57,12.19 5.33,0.92 8.31,7.46 6.99,12.3 -1.55,5.63 -6.97,7.9 -12.3,6.99 -25.99,-4.49 -52.08,-8.33 -78.26,-11.48 -5.36,-0.64 -10,-4.13 -10,-10 0,-4.9 4.6,-10.64 10,-10"
         style="fill:#211d1d;fill-opacity:1;fill-rule:nonzero;stroke:none"
         id="path106" /><path
         d="m 4175.68,2573.74 c -78.32,3.13 -123.24,12.8 -149.07,23.01 l -1.09,-0.48 15.01,-345.38 c 0,0 157.68,-41.3 322.86,11.26 l 3.66,347.65 c -37.62,-20.45 -98.34,-39.78 -191.37,-36.06"
         style="fill:#f258b4;fill-opacity:1;fill-rule:nonzero;stroke:none"
         id="path108" /><path
         d="m 4026.61,2596.75 c 25.83,-10.21 70.75,-19.88 149.07,-23.01 93.03,-3.72 153.75,15.61 191.37,36.06 l 0.09,8.99 c 0,0 -157.05,63.54 -340.53,-22.04"
         style="fill:#2d3392;fill-opacity:1;fill-rule:nonzero;stroke:none"
         id="path110" /><path
         d="m 4035.2,2373.67 c 6.12,-6.26 14.65,-10.16 24.1,-10.16 18.67,0 33.79,15.13 33.79,33.78 0,18.66 -15.12,33.79 -33.79,33.79 -10.55,0 -19.86,-4.94 -26.05,-12.52 l 1.95,-44.89"
         style="fill:#c6d7f1;fill-opacity:1;fill-rule:nonzero;stroke:none"
         id="path112" /><path
         d="m 4171.93,2504.29 c -18.66,0 -33.79,-15.13 -33.79,-33.79 0,-18.66 15.13,-33.78 33.79,-33.78 18.66,0 33.79,15.12 33.79,33.78 0,18.66 -15.13,33.79 -33.79,33.79"
         style="fill:#c6d7f1;fill-opacity:1;fill-rule:nonzero;stroke:none"
         id="path114" /><path
         d="m 4284.56,2577.49 c -18.67,0 -33.79,-15.12 -33.79,-33.78 0,-18.66 15.12,-33.79 33.79,-33.79 18.66,0 33.79,15.13 33.79,33.79 0,18.66 -15.13,33.78 -33.79,33.78"
         style="fill:#c6d7f1;fill-opacity:1;fill-rule:nonzero;stroke:none"
         id="path116" /><path
         d="m 4168.18,2391.67 c -18.66,0 -33.79,-15.13 -33.79,-33.79 0,-18.66 15.13,-33.79 33.79,-33.79 18.65,0 33.78,15.13 33.78,33.79 0,18.66 -15.13,33.79 -33.78,33.79"
         style="fill:#c6d7f1;fill-opacity:1;fill-rule:nonzero;stroke:none"
         id="path118" /><path
         d="m 4207.43,2235.94 c 1.24,3.52 2.04,7.25 2.04,11.19 0,18.66 -15.13,33.78 -33.79,33.78 -18.65,0 -33.78,-15.12 -33.78,-33.78 0,-3.7 0.74,-7.19 1.84,-10.52 19.38,-1.12 40.81,-1.51 63.69,-0.67"
         style="fill:#c6d7f1;fill-opacity:1;fill-rule:nonzero;stroke:none"
         id="path120" /><path
         d="m 4278.92,2342.86 c -18.66,0 -33.79,-15.13 -33.79,-33.79 0,-18.65 15.13,-33.78 33.79,-33.78 18.66,0 33.79,15.13 33.79,33.78 0,18.66 -15.13,33.79 -33.79,33.79"
         style="fill:#c6d7f1;fill-opacity:1;fill-rule:nonzero;stroke:none"
         id="path122" /><path
         d="m 4364.84,2399.89 c -9.82,-5.92 -16.46,-16.57 -16.46,-28.88 0,-12.05 6.35,-22.56 15.85,-28.53 l 0.61,57.41"
         style="fill:#c6d7f1;fill-opacity:1;fill-rule:nonzero;stroke:none"
         id="path124" /><path
         d="m 4280.8,2464.87 c -18.66,0 -33.78,-15.13 -33.78,-33.79 0,-18.66 15.12,-33.79 33.78,-33.79 18.66,0 33.79,15.13 33.79,33.79 0,18.66 -15.13,33.79 -33.79,33.79"
         style="fill:#c6d7f1;fill-opacity:1;fill-rule:nonzero;stroke:none"
         id="path126" /><path
         d="m 4365.74,2485 0.41,39.08 c -4.05,-5.58 -6.51,-12.37 -6.51,-19.79 0,-7.18 2.27,-13.81 6.1,-19.29"
         style="fill:#c6d7f1;fill-opacity:1;fill-rule:nonzero;stroke:none"
         id="path128" /><path
         d="m 4068.69,2476.13 c 18.66,0 33.79,15.13 33.79,33.79 0,18.66 -15.13,33.79 -33.79,33.79 -18.65,0 -33.78,-15.13 -33.78,-33.79 0,-18.66 15.13,-33.79 33.78,-33.79"
         style="fill:#c6d7f1;fill-opacity:1;fill-rule:nonzero;stroke:none"
         id="path130" /><path
         d="m 4175.68,2573.74 c -9.52,0.38 -18.54,0.86 -27.11,1.43 3.59,-14.8 16.84,-25.83 32.74,-25.83 15.32,0 28.09,10.24 32.24,24.2 -12,-0.34 -24.57,-0.33 -37.87,0.2"
         style="fill:#c6d7f1;fill-opacity:1;fill-rule:nonzero;stroke:none"
         id="path132" /><path
         d="m 4075.54,2243.94 c 12.47,4.97 21.31,17.1 21.31,31.35 0,18.65 -15.13,33.78 -33.79,33.78 -9.72,0 -18.42,-4.16 -24.59,-10.73 l 2.06,-47.45 c 0,0 12.86,-3.36 35.01,-6.95"
         style="fill:#c6d7f1;fill-opacity:1;fill-rule:nonzero;stroke:none"
         id="path134" /><g
         id="g136"><g
           id="g138"
           clip-path="url(#clipPath142)"><path
             d="m 2292.32,3599.16 h 426.27 v 101.449 h -426.27 z"
             style="fill:#f6f9fd;fill-opacity:1;fill-rule:nonzero;stroke:none"
             id="path144" /></g></g><path
         d="m 2208.57,3449.74 c 18.16,50.54 44.82,104.53 83.75,149.42 0.02,0.02 0.02,0.02 0.03,0.03 0.07,0.08 0.14,0.17 0.21,0.25 0.02,0.02 0.05,0.05 0.07,0.08 0.05,0.05 0.1,0.11 0.15,0.17 0.03,0.04 0.08,0.09 0.12,0.13 0.03,0.04 0.07,0.09 0.11,0.13 50.63,58.03 121.89,100.66 222.02,100.66 10.14,0 20.55,-0.43 31.29,-1.34 41.43,-3.48 87.42,-13.9 138.41,-32.86 0.2,-0.08 0.37,-0.14 0.57,-0.22 v 0 c 0,0 0.01,0 0.02,0.01 0.58,0.16 13.13,3.5 33.27,6.49 16.7,2.49 38.63,4.73 63.32,4.73 56.44,0 127.3,-11.74 183.07,-59.21 -64.19,-27.83 -129.8,-52.33 -196.51,-73.42 -161.87,7.81 -240.32,9.01 -273.21,9.01 -14.56,0 -20.19,-0.23 -20.19,-0.23 l -5.59,-79.35 c -86.33,-13.69 -173.54,-21.9 -260.91,-24.48"
         style="fill:#6358b1;fill-opacity:1;fill-rule:nonzero;stroke:none"
         id="path146" /><path
         d="m 2469.48,3474.22 5.59,79.35 c 0,0 5.63,0.23 20.19,0.23 32.89,0 111.34,-1.2 273.21,-9.01 -97.72,-30.91 -197.76,-54.51 -298.99,-70.57"
         style="fill:#6358b1;fill-opacity:1;fill-rule:nonzero;stroke:none"
         id="path148" /><path
         d="M 468.547,477.059 H 4531.45 V 798.031 H 468.547 V 477.059"
         style="fill:#2d3392;fill-opacity:1;fill-rule:nonzero;stroke:none"
         id="path150" /><path
         d="m 4284.29,2782.16 h -873.4 c -34.06,0 -61.67,27.6 -61.67,61.65 v 1109.92 c 0,34.05 27.61,61.66 61.67,61.66 h 873.4 c 34.06,0 61.66,-27.61 61.66,-61.66 V 2843.81 c 0,-34.05 -27.6,-61.65 -61.66,-61.65"
         style="fill:#7599d6;fill-opacity:1;fill-rule:nonzero;stroke:none"
         id="path152" /><path
         d="m 4344.29,2852.16 h -873.4 c -34.06,0 -61.67,27.6 -61.67,61.65 v 1109.92 c 0,34.05 27.61,61.66 61.67,61.66 h 873.4 c 34.06,0 61.66,-27.61 61.66,-61.66 V 2913.81 c 0,-34.05 -27.6,-61.65 -61.66,-61.65"
         style="fill:#90a9dd;fill-opacity:1;fill-rule:nonzero;stroke:none"
         id="path154" /><path
         d="m 4413.41,2909.73 h -873.4 c -34.06,0 -61.65,27.61 -61.65,61.66 v 1109.92 c 0,34.05 27.59,61.65 61.65,61.65 h 873.4 c 34.06,0 61.66,-27.6 61.66,-61.65 V 2971.39 c 0,-34.05 -27.6,-61.66 -61.66,-61.66"
         style="fill:#c6d7f1;fill-opacity:1;fill-rule:nonzero;stroke:none"
         id="path156" /><path
         d="m 4280.8,3936.5 h -608.18 c -8.28,0 -15,6.71 -15,15 0,8.29 6.72,15 15,15 h 608.18 c 8.28,0 15,-6.71 15,-15 0,-8.29 -6.72,-15 -15,-15"
         style="fill:#2d3392;fill-opacity:1;fill-rule:nonzero;stroke:none"
         id="path158" /><path
         d="m 4280.8,3852.03 h -608.18 c -8.28,0 -15,6.72 -15,15 0,8.29 6.72,15 15,15 h 608.18 c 8.28,0 15,-6.71 15,-15 0,-8.28 -6.72,-15 -15,-15"
         style="fill:#2d3392;fill-opacity:1;fill-rule:nonzero;stroke:none"
         id="path160" /><path
         d="m 4062.58,3767.57 h -389.96 c -8.28,0 -15,6.71 -15,15 0,8.28 6.72,15 15,15 h 389.96 c 8.29,0 15,-6.72 15,-15 0,-8.29 -6.71,-15 -15,-15"
         style="fill:#2d3392;fill-opacity:1;fill-rule:nonzero;stroke:none"
         id="path162" /><path
         d="m 4280.8,3587.37 h -608.18 c -8.28,0 -15,6.71 -15,15 0,8.29 6.72,15 15,15 h 608.18 c 8.28,0 15,-6.71 15,-15 0,-8.29 -6.72,-15 -15,-15"
         style="fill:#2d3392;fill-opacity:1;fill-rule:nonzero;stroke:none"
         id="path164" /><path
         d="m 4280.8,3502.9 h -608.18 c -8.28,0 -15,6.72 -15,15 0,8.29 6.72,15 15,15 h 608.18 c 8.28,0 15,-6.71 15,-15 0,-8.28 -6.72,-15 -15,-15"
         style="fill:#2d3392;fill-opacity:1;fill-rule:nonzero;stroke:none"
         id="path166" /><path
         d="m 4062.58,3418.43 h -389.96 c -8.28,0 -15,6.72 -15,15 0,8.29 6.72,15 15,15 h 389.96 c 8.29,0 15,-6.71 15,-15 0,-8.28 -6.71,-15 -15,-15"
         style="fill:#2d3392;fill-opacity:1;fill-rule:nonzero;stroke:none"
         id="path168" /><path
         d="m 4280.8,3238.23 h -608.18 c -8.28,0 -15,6.72 -15,15 0,8.29 6.72,15 15,15 h 608.18 c 8.28,0 15,-6.71 15,-15 0,-8.28 -6.72,-15 -15,-15"
         style="fill:#2d3392;fill-opacity:1;fill-rule:nonzero;stroke:none"
         id="path170" /><path
         d="m 4280.8,3153.77 h -608.18 c -8.28,0 -15,6.71 -15,15 0,8.28 6.72,15 15,15 h 608.18 c 8.28,0 15,-6.72 15,-15 0,-8.29 -6.72,-15 -15,-15"
         style="fill:#2d3392;fill-opacity:1;fill-rule:nonzero;stroke:none"
         id="path172" /><path
         d="m 4062.58,3069.3 h -389.96 c -8.28,0 -15,6.71 -15,15 0,8.28 6.72,15 15,15 h 389.96 c 8.29,0 15,-6.72 15,-15 0,-8.29 -6.71,-15 -15,-15"
         style="fill:#2d3392;fill-opacity:1;fill-rule:nonzero;stroke:none"
         id="path174" /><path
         d="m 4533.5,4107.07 c 0,-45.1 -36.56,-81.66 -81.66,-81.66 -45.09,0 -81.65,36.56 -81.65,81.66 0,45.09 36.56,81.65 81.65,81.65 45.1,0 81.66,-36.56 81.66,-81.65"
         style="fill:#2d3392;fill-opacity:1;fill-rule:nonzero;stroke:none"
         id="path176" /><path
         d="m 4465.98,4107.07 22.5,22.49 c 3.91,3.9 3.91,10.23 0,14.14 -3.9,3.91 -10.23,3.91 -14.14,0 l -22.5,-22.49 -22.49,22.49 c -3.9,3.91 -10.23,3.91 -14.14,0 -3.91,-3.91 -3.91,-10.24 0,-14.14 l 22.49,-22.49 -22.49,-22.5 c -3.91,-3.9 -3.91,-10.23 0,-14.14 1.95,-1.95 4.51,-2.93 7.07,-2.93 2.56,0 5.12,0.98 7.07,2.93 l 22.49,22.5 22.5,-22.5 c 1.96,-1.95 4.51,-2.93 7.07,-2.93 2.56,0 5.12,0.98 7.07,2.93 3.91,3.91 3.91,10.24 0,14.14 l -22.5,22.5"
         style="fill:#ffffff;fill-opacity:1;fill-rule:nonzero;stroke:none"
         id="path178" /><path
         d="m 2997.09,4517.77 c -7.01,24.19 -29.27,41.91 -55.73,41.91 h -661 c -25.76,0 -47.56,-16.79 -55.15,-40.01 l 388.76,-264.08 383.12,262.18"
         style="fill:#90a9dd;fill-opacity:1;fill-rule:nonzero;stroke:none"
         id="path180" /><path
         d="m 2999.41,4094.02 v 407.61 c 0,5.6 -0.84,11.01 -2.32,16.14 l -292.99,-200.5 279.59,-262.89 c 9.72,10.38 15.72,24.3 15.72,39.64"
         style="fill:#82a2db;fill-opacity:1;fill-rule:nonzero;stroke:none"
         id="path182" /><path
         d="m 2225.21,4519.67 c -1.86,-5.69 -2.9,-11.74 -2.9,-18.04 v -407.61 c 0,-16.02 6.5,-30.54 17,-41.04 l 272.21,272.2 -286.31,194.49"
         style="fill:#82a2db;fill-opacity:1;fill-rule:nonzero;stroke:none"
         id="path184" /><path
         d="m 2941.36,4035.97 c 16.71,0 31.73,7.1 42.33,18.41 l -279.59,262.89 -90.13,-61.68 -102.45,69.59 -272.21,-272.2 c 10.51,-10.51 25.02,-17.01 41.05,-17.01 h 661"
         style="fill:#7599d6;fill-opacity:1;fill-rule:nonzero;stroke:none"
         id="path186" /><path
         d="m 3030.39,4506.24 c 0,-45.1 -36.57,-81.65 -81.65,-81.65 -45.1,0 -81.66,36.55 -81.66,81.65 0,45.1 36.56,81.65 81.66,81.65 45.08,0 81.65,-36.55 81.65,-81.65"
         style="fill:#2d3392;fill-opacity:1;fill-rule:nonzero;stroke:none"
         id="path188" /><path
         d="m 2962.88,4506.24 22.49,22.49 c 3.9,3.91 3.9,10.24 0,14.15 -3.91,3.9 -10.24,3.9 -14.14,0 l -22.49,-22.5 -22.5,22.5 c -3.91,3.9 -10.24,3.9 -14.14,0 -3.91,-3.91 -3.91,-10.24 0,-14.15 l 22.49,-22.49 -22.49,-22.49 c -3.91,-3.91 -3.91,-10.24 0,-14.14 1.95,-1.96 4.51,-2.93 7.07,-2.93 2.55,0 5.11,0.97 7.07,2.93 l 22.5,22.49 22.49,-22.49 c 1.95,-1.96 4.51,-2.93 7.07,-2.93 2.56,0 5.11,0.97 7.07,2.93 3.9,3.9 3.9,10.23 0,14.14 l -22.49,22.49"
         style="fill:#ffffff;fill-opacity:1;fill-rule:nonzero;stroke:none"
         id="path190" /></g></g></svg>
